<svg xmlns="http://www.w3.org/2000/svg" xml:space="preserve" width="512" height="512">
  <g fill="currentColor">
    <path d="M477.399 221.936c.366-22.896-18.891-40.836-41.286-39.378-21.229 1.392-37.383 19.725-36.143 40.932-24.551-11.413-53.46-14.848-82.726-9.361-10.024 1.879-20.45 2.931-30.989 3.127l-15.994.298c-2.712.051-5.421.114-8.126.178-13.189.309-25.648.602-37.963-.568-13.264-1.261-26.511-5.381-38.542-11.947 1.667-5.295 3.983-9.076 6.657-10.533 51.321-27.965 82.668-67.685 90.648-114.866.563-3.32-.641-6.496-3.217-8.494-2.83-2.193-7.781-3.903-23.063.049-7.665 1.983-16.001 4.924-19.954 6.685a171.066 171.066 0 0 0-8.327 4.004c.201-1.718.314-3.328.412-4.769.066-.973.125-1.88.216-2.715.333-3.125-.69-5.347-1.623-6.682-4.028-5.72-12.677-4.214-20.606-1.983-6.844 1.924-14.289 4.898-18.631 6.993-18.693 9.013-28.936 25.111-33.377 33.904-3.649 7.221-6.901 18.008-13.376 39.49-1.546 5.102-3.127 8.866-5.683 14.441-2.276 4.96-10.563 12.533-15.559 16.409-20.164 3.148-39.06 13.427-53.048 29.128l-19.426 21.8c-8.208 5.586-13.079 14.748-13.079 24.699 0 2.058.576 13.589 3.299 18.686 2.129 4.037 5.281 7.554 9.149 10.193l3.202 2.154c5.963 4.043 12.061 7.084 18.643 9.299l1.018.339h.028c5.921 1.891 12.216 3.108 19.182 3.716 1.435.132 2.982.237 4.886.332 2.188.104 4.469.155 6.973.155a108.367 108.367 0 0 0 10.356-.497c20.917 7.207 34.087 19.205 42.551 38.783 4.886 11.295 7.364 23.606 7.364 36.59v35.418c-14.549 4.264-25.209 17.723-25.209 33.632v6.5h51.288l25.5-56.167a148.825 148.825 0 0 0 19.457 6.347c14.023 3.527 28.84 4.94 44.077 4.254a70.798 70.798 0 0 0 5.541 4.393h-39.106c-19.158 0-34.688 15.53-34.688 34.688v6.491h117.996a6.498 6.498 0 0 0 6.499-6.499v-.002a6.498 6.498 0 0 0-6.499-6.499h-104c2.769-8.789 10.998-15.18 20.692-15.18h73.308a6.536 6.536 0 0 0 6.535-6.536v-.263c0-3.391-2.598-6.16-5.971-6.512a56.762 56.762 0 0 1-5.885-.927c-9.689-2.022-18.758-6.602-26.253-13.268l-.372-.325c-6.54-5.931-11.691-13.369-14.9-21.523a56.71 56.71 0 0 1-2.822-9.516 36.595 36.595 0 0 1-.189-.989 57.254 57.254 0 0 1-.963-10.498c0-29.649 22.613-54.116 51.5-57.059 3.307-.337 5.855-3.051 5.855-6.374v-.202c0-3.789-3.275-6.747-7.047-6.37-35.498 3.546-63.309 33.589-63.309 70.005 0 4.349.398 8.685 1.172 12.816.071.406.151.812.242 1.264a69.497 69.497 0 0 0 3.47 11.693 70.17 70.17 0 0 0 7.661 14.298c-10.11-.289-19.95-1.598-29.374-3.97a135.785 135.785 0 0 1-20.343-6.868l-.092-.039a9.861 9.861 0 0 0-11.812 3.271l-.43.59-23.823 52.475h-28.936c2.781-8.994 11.175-15.548 21.07-15.548h4.313a6.5 6.5 0 1 0 0-13h-1.152v-34.002c0-14.77-2.837-28.816-8.432-41.75-7.301-16.887-17.928-29.253-32.748-37.959a109.417 109.417 0 0 0 15.092-5.887l.88-.421a6.5 6.5 0 0 0-5.614-11.726l-.89.427a96.733 96.733 0 0 1-20.246 7.053 96.268 96.268 0 0 1-16.052 2.24 94.726 94.726 0 0 1-5.261.146c-2.295 0-4.374-.046-6.338-.14a104.727 104.727 0 0 1-4.363-.296c-6.365-.555-12.004-1.677-17.24-3.431l-.375-.125c-5.159-1.771-9.979-4.182-14.724-7.352a25.932 25.932 0 0 0 8.451-9.56c3.155-6.156 3.724-13.153 1.603-19.699a25.24 25.24 0 0 0-7.246-11.1l16.062-18.024c14.135-15.867 34.073-25.264 54.683-25.781.7-.016 1.4-.023 2.109-.023h9.436c7.596.509 14.534-4.371 16.583-11.719 5.596-20.057 30.014-64.149 82.374-87.472 6.64-2.957 20.41-7.104 27.304-7.867-8.513 41.706-36.491 75.737-83.228 101.203-12.212 6.655-15.24 25.129-15.958 35.549-.08 1.155-.078 2.656-.015 4.236.16 4.028 3.883 6.957 7.829 6.131a6.494 6.494 0 0 0 5.161-6.619c-.046-1.116-.054-2.15-.005-2.855.026-.377.062-.742.093-1.114 12.546 6.261 26.141 10.215 39.77 11.511 13.083 1.245 26.513.93 39.5.623 2.684-.063 5.371-.126 8.063-.176l15.994-.298c11.26-.21 22.41-1.336 33.143-3.348 35.92-6.73 71.098 1.229 96.516 21.848 22.167 17.98 34.744 44.285 35.414 74.069.02.838.029 1.679.029 2.521 0 58.464-45.958 106.396-103.645 109.565-3.424.188-6.088 3.052-6.088 6.481 0 3.733 3.141 6.702 6.867 6.496 64.494-3.574 115.865-57.173 115.865-122.543 0-.94-.011-1.879-.031-2.814-.529-23.492-7.654-45.093-20.465-62.944 9.937-1.397 18.871-6.521 25.161-14.591a38.598 38.598 0 0 0 8.135-23.055zM51.426 242.075a12.317 12.317 0 0 1 4.198 5.982c1.048 3.235.762 6.702-.805 9.761a12.94 12.94 0 0 1-5.975 5.764c-.64-2.812-1.248-7.753-1.248-10.806a16.78 16.78 0 0 1 3.83-10.701zm95.67-68.167a3.094 3.094 0 0 1-3.25 2.237l-3.404-.008c2.888-3.161 5.545-6.632 7.08-9.978 2.739-5.974 4.556-10.308 6.311-16.101 6.061-20.108 9.4-31.186 12.535-37.389 2.979-5.896 11.613-20.436 27.422-28.058 6.985-3.369 16.701-6.594 21.977-7.48-.352 5.076-.928 10.707-5.316 15.514-38.941 26.351-58.233 62.904-63.355 81.263zm265.858 49.008c-.878-13.404 8.712-25.113 21.74-27.129a21.373 21.373 0 0 1 6.534 14.031 21.234 21.234 0 0 1-5.262 15.494 21.248 21.248 0 0 1-14.686 7.238 21.321 21.321 0 0 1-5.865-.435l-.158-.104a25.573 25.573 0 0 1-2.303-9.095zm45.059 15.293c-4.535 5.17-10.815 8.265-17.685 8.715a25.795 25.795 0 0 1-7.506-.624 108.99 108.99 0 0 0-2.416-2.339c5.879-1.877 11.159-5.318 15.334-10.076 6.057-6.904 9.061-15.753 8.461-24.917a34.36 34.36 0 0 0-2.063-9.652c6.854 4.234 11.643 11.6 12.209 20.232.45 6.865-1.8 13.492-6.334 18.661z"/>
    <path d="M92.584 214.3c-2.841.868-4.437 3.867-3.565 6.697.872 2.829 3.882 4.42 6.723 3.551 2.841-.868 4.438-3.867 3.565-6.697-.871-2.829-3.881-4.42-6.723-3.551z"/>
  </g>
</svg>
