<svg xmlns="http://www.w3.org/2000/svg" xml:space="preserve" width="512" height="512">
  <path  fill="currentColor" d="m43.306 286.755 112.468 10.087c.039.445.084.893.119 1.336l.011.114c.095.979.172 1.958.251 2.969.188 2.253.356 4.486.513 6.7l.018.255c.063.914.125 1.829.182 2.795.067 1.028.135 2.056.183 3.074l.008.134c.037.55.066 1.103.096 1.654l.048.9c.129 2.437.237 4.861.327 7.272.068 1.693.118 3.357.167 5.021.02.681.038 1.352.049 2.022l.003.115c.017.503.025 1.007.034 1.51l.004.206c.028 1.145.049 2.279.059 3.434l.02 2.188c.069 10.455-.239 19.73-.916 27.563l-.567 6.511a41.364 41.364 0 0 0 .689 12.108c-5.395 2.522-11.5 3.316-17.625 2.116-5.545-1.086-10.659-3.875-14.623-7.901-5.993-6.088-8.875-14.168-8.092-22.654l.559-6.527c.367-4.261.745-7.352 1.078-10.077.827-6.773 1.371-11.227.621-23.88-.215-3.628-3.359-6.384-6.983-6.106-3.539.27-6.204 3.337-5.991 6.88.688 11.396.236 15.089-.551 21.53-.346 2.834-.738 6.046-1.126 10.54l-.556 6.488a41.538 41.538 0 0 0 10.647 31.735 41.32 41.32 0 0 0 6.376 5.677c.811 19.434 14.154 34.575 30.6 34.575h26.389c5.364 10.52 15.077 17.47 26.217 17.47h31.554a7.246 7.246 0 0 0 7.247-7.247c0-2.905-1.777-5.566-4.519-6.53-7.551-2.653-13.132-11.795-13.132-22.633v-.746c6.739-5.98 11.39-14.055 13.151-22.882l.117-.572c3.71-18.641 5.754-45.908 5.605-74.82l-.002-.248c-.01-1.663-.021-3.334-.05-4.978a533.842 533.842 0 0 0-.354-13.502c-.05-1.335-.101-2.671-.172-3.996-.031-.861-.073-1.722-.121-2.509-.041-.857-.083-1.714-.131-2.511-.052-.966-.103-1.933-.164-2.866a431.15 431.15 0 0 0-.259-3.872 19.686 19.686 0 0 0-.059-.768 312.598 312.598 0 0 0-.328-4.372 32.91 32.91 0 0 0-.078-.925c-.072-.935-.153-1.864-.236-2.695a207.095 207.095 0 0 0-.342-3.662l-.016-.153c-.012-.128-.024-.256-.038-.382a332.327 332.327 0 0 0-1.176-10.206c16.667 5.769 51.342 15.713 92.365 15.713 10.082 0 20.553-.603 31.229-2.014l-.008.299c-.258 12.158.067 24.735.923 37.037l-97.797-8.768a6.498 6.498 0 0 0-7.053 5.893v.003a6.498 6.498 0 0 0 5.892 7.052l49.894 4.474c4.972 22.471 11.425 41.937 18.326 55.19l13.787 26.455c2.99 5.751 7.407 10.458 12.646 13.851 3.76 16.581 16.551 28.236 30.861 28.236 1.089 0 2.188-.067 3.291-.205l11.695-1.456c5.579 6.991 13.483 11.315 22.272 11.315h31.553a7.247 7.247 0 0 0 7.247-7.247c0-2.905-1.777-5.566-4.519-6.53-7.551-2.653-13.132-11.795-13.132-22.633v-.042a38.255 38.255 0 0 0 1.598-2.038c7.08-9.757 9.063-22.399 5.319-33.782l-.256-.796c-3.121-9.934-4.668-29.266-4.591-48.112l23.396 2.096a6.5 6.5 0 0 0 1.159-12.95l-24.232-2.17c.551-11.848 1.805-22.496 3.778-29.156.52-1.749 1.044-3.537 1.573-5.356l21.99 1.971a6.5 6.5 0 0 0 1.161-12.949l-19.552-1.752c6.644-24.191 12.806-51.002 12.806-67.233v-19.46c0-29.12-11.341-56.503-31.936-77.107-20.603-20.592-47.985-31.933-77.104-31.933l-.332.008c-2.548.131-62.656 3.265-92.74 9.845l-13.73 2.427c-26.922 4.765-58.862 3.528-94.938-3.674a236.967 236.967 0 0 0-23.103-3.405 252.35 252.35 0 0 0-23.297-1.16c-50.591 0-91.75 38.202-91.75 85.16 0 .771.011 1.541.033 2.345l.005.141c.021.581.041 1.162.07 1.735a79.265 79.265 0 0 0 .792 7.73c.119.807.25 1.612.401 2.409.061.354.128.708.196 1.063l.021.113c.068.349.145.695.224 1.043.081.404.165.809.267 1.212a75.046 75.046 0 0 0 1.376 5.2c.143.481.295.964.441 1.426.188.599.388 1.196.57 1.698a79.871 79.871 0 0 0 2.993 7.421c.191.438.393.865.605 1.292a80.86 80.86 0 0 0 3.818 7.008c.267.448.544.888.859 1.385a79.118 79.118 0 0 0 4.604 6.527c.295.397.599.783.885 1.134a86.662 86.662 0 0 0 7.683 8.376 80.634 80.634 0 0 0 3.842 3.472c.399.349.81.696 1.227 1.03.123.108.25.212.381.311.369.308.74.607 1.119.899a81.683 81.683 0 0 0 4.634 3.414c.443.307.888.614 1.275.865.436.294.872.585 1.317.86.453.3.916.591 1.381.876.085.052.171.101.256.152l-17.743-1.591a6.5 6.5 0 0 0-1.161 12.949l101.044 9.059.292 1.325c.122.541.235 1.091.35 1.642l.126.634c.104.481.197.962.293 1.443l.032.166c.222 1.092.435 2.184.643 3.312l.062.323c.082.435.164.865.239 1.303l.046.24c.016.071.032.146.044.221l.042.246c.111.584.213 1.179.32 1.812l.561 3.264c.145.881.29 1.771.432 2.712.197 1.262.395 2.523.583 3.798.266 1.794.521 3.599.765 5.384l.016.121c.133 1.008.264 2.007.386 3.016l.016.116c.103.735.195 1.471.279 2.205l.028.221c.027.186.047.371.068.563l.163 1.438-109.937-9.859a6.5 6.5 0 0 0-7.055 5.893 6.503 6.503 0 0 0 5.897 7.051zM151.402 414.12c-7.375 0-13.845-6.268-16.438-14.995a41.274 41.274 0 0 0 26.692-2.199 41.349 41.349 0 0 0 5.384 7.43 41.317 41.317 0 0 0 6.369 5.669 44.14 44.14 0 0 0 .363 4.096h-22.37zm52.606 17.47c-7.374 0-13.842-6.263-16.436-14.984a41.296 41.296 0 0 0 10.09 1.265c5.169 0 10.272-.986 15.044-2.846 1.001 6.226 3.337 11.896 6.645 16.565h-15.343zm155.588-44.744-13.788-26.458c-5.988-11.501-11.67-28.315-16.25-47.965l36.591 3.28c.059.563.108 1.136.169 1.696.099.936.205 1.862.314 2.798l.043.381c.17 1.464.349 2.91.536 4.347l.043.336c.13 1.016.269 2.012.421 3.108a288.748 288.748 0 0 0 .932 6.176l.231 1.424c.165.999.34 1.997.513 2.964.175.99.351 1.969.536 2.941.369 1.926.749 3.832 1.142 5.668.186.885.379 1.751.582 2.617l.038.17c.204.914.421 1.818.636 2.702.103.446.214.886.332 1.351.226.925.463 1.838.696 2.681 1.188 4.432 2.48 8.542 3.847 12.226l10.409 27.957c.162.436.356.853.533 1.279-1.343.431-2.731.75-4.164.943l-.258.031c-9.836 1.222-19.512-3.862-24.084-12.653zm33.659 34.984c-6.247.78-12.4-3.055-16.341-9.38 1.283.137 2.574.228 3.877.228 1.351 0 2.711-.075 4.072-.228l.432-.05a36.738 36.738 0 0 0 10.062-2.726 36.89 36.89 0 0 0 3.055 2.878 42.172 42.172 0 0 0 1.706 8.423l-6.863.855zm35.577 9.76c-6.291 0-11.922-4.561-15.051-11.315 2.661.623 5.413.959 8.215.966h.09a36.093 36.093 0 0 0 15.933-3.673c1.175 5.228 3.304 9.997 6.155 14.022h-15.342zM42.89 179.459c0 .617.034 1.228.055 1.841a68.04 68.04 0 0 1-1.089-2.909c-.149-.413-.29-.835-.429-1.277-.126-.397-.253-.796-.387-1.247a62.275 62.275 0 0 1-1.167-4.417l-.049-.201c-.057-.217-.097-.435-.149-.698l-.034-.157a25.34 25.34 0 0 1-.156-.721l-.02-.1a33.964 33.964 0 0 1-.149-.813l-.03-.168a44.086 44.086 0 0 1-.325-1.946c-.09-.602-.181-1.204-.258-1.855a66.144 66.144 0 0 1-.409-4.638c-.026-.496-.043-1-.061-1.505l-.004-.098a69.162 69.162 0 0 1-.026-1.938c0-39.789 35.327-72.16 78.725-72.16 7.418.029 14.843.398 22.061 1.099a224.408 224.408 0 0 1 21.822 3.215c37.663 7.521 71.221 8.774 99.744 3.728l13.86-2.45.263-.053c28.245-6.205 87.02-9.39 90.582-9.578 25.585.044 49.641 10.029 67.745 28.125 18.139 18.147 28.128 42.267 28.128 67.915v19.46c0 14.735-6.194 43.722-17.442 81.623-6.439 21.729-6.131 76.618.565 97.93l.282.878c2.492 7.577 1.225 15.642-3.479 22.123-4.51 6.216-11.422 9.776-18.973 9.776h-.058c-9.878-.023-18.828-6.263-22.273-15.528l-10.407-27.952c-1.224-3.298-2.394-7.02-3.49-11.111a81.245 81.245 0 0 1-.61-2.351l-.038-.149c-.088-.345-.176-.69-.256-1.044l-.025-.106c-.146-.598-.292-1.205-.435-1.819l-.174-.771c-.197-.837-.386-1.675-.57-2.559-.381-1.775-.741-3.59-1.092-5.42a199.8 199.8 0 0 1-.506-2.773c-.165-.923-.33-1.863-.48-2.774l-.243-1.5a255.8 255.8 0 0 1-.446-2.862c-.146-.979-.294-1.969-.442-3.036-.114-.82-.229-1.635-.336-2.46l-.056-.442c-.181-1.37-.353-2.748-.517-4.144l-.044-.385c-.116-1.001-.233-2.002-.341-3.03-1.761-16.301-2.505-33.672-2.154-50.258.02-1.122.048-2.235.087-3.349l.004-.174c.038-1.188.076-2.377.135-3.592.547-13.139 1.84-24.949 3.741-34.156l6.397-30.985a6.5 6.5 0 0 0-5.051-7.679h-.006a6.498 6.498 0 0 0-7.678 5.05l-2.01 9.732c-8.531-14.377-20.117-21.214-27.57-24.307-2.729-1.132-6.918-2.133-10.496-2.861-3.686-.751-7.243 1.74-7.763 5.466a6.49 6.49 0 0 0 5.145 7.266c2.948.592 6.26 1.36 8.133 2.138 9.736 4.04 22.37 13.402 27.871 35.026-1.585 8.137-2.741 17.935-3.392 28.672-59.046 8.439-113.319-10.2-126.501-15.223-.037-.187-.071-.382-.108-.567a421.256 421.256 0 0 0-.649-3.12 20.756 20.756 0 0 1-.479-4.422c0-4.527 1.521-9.01 4.277-12.614l5.099-6.653a6.497 6.497 0 0 0-1.206-9.111l-.002-.003a6.498 6.498 0 0 0-9.11 1.206l-5.103 6.658c-4.485 5.866-6.955 13.153-6.955 20.518 0 2.411.263 4.833.771 7.159.206.974.413 1.967.612 2.944 1.392 7.023 2.558 15.197 3.468 24.294l.021.192a187.621 187.621 0 0 1 .358 3.829c.085.862.161 1.734.228 2.606l.022.23c.02.182.031.363.052.631.117 1.418.225 2.856.322 4.305l.014.162c.01.111.023.228.028.339l.009.149c.089 1.273.178 2.546.258 3.851.059.904.107 1.818.158 2.782.049.793.087 1.596.13 2.475.047.779.084 1.559.112 2.338l.006.111c.068 1.274.116 2.56.165 3.853.172 4.469.288 8.902.346 13.203.028 1.622.038 3.244.049 4.858l.001.241c.144 28.068-1.809 54.388-5.349 72.175l-.116.57a28.543 28.543 0 0 1-9.854 16.434 28.568 28.568 0 0 1-18.051 6.458c-8.096 0-15.561-3.295-21.019-9.276-5.46-5.985-8.06-13.723-7.316-21.819l.57-6.545c.712-8.236 1.037-17.917.964-28.824l-.02-2.19c-.011-1.194-.031-2.4-.061-3.573l-.003-.161c-.01-.549-.021-1.099-.038-1.647-.011-.71-.03-1.421-.052-2.148-.051-1.713-.102-3.427-.172-5.146a460.03 460.03 0 0 0-.336-7.477l-.047-.872a116.1 116.1 0 0 0-.103-1.783c-.051-1.076-.122-2.161-.19-3.206-.057-.956-.121-1.912-.187-2.868l-.019-.272a566.739 566.739 0 0 0-.523-6.85c-.082-1.041-.164-2.083-.266-3.124a260.207 260.207 0 0 0-.345-3.849 568.635 568.635 0 0 0-.58-5.749l-.758-6.657a29.806 29.806 0 0 0-.115-.956 96.383 96.383 0 0 0-.302-2.376c-.125-1.032-.26-2.055-.396-3.087l-.02-.148a406.787 406.787 0 0 0-1.383-9.429c-.144-.96-.299-1.909-.461-2.895l-.566-3.299c-.111-.662-.225-1.314-.346-1.957a15.969 15.969 0 0 0-.129-.691 93.89 93.89 0 0 0-.259-1.405l-.054-.286a185.928 185.928 0 0 0-.676-3.479l-.024-.128a109.76 109.76 0 0 0-.323-1.593l-.122-.613c-.129-.623-.258-1.245-.388-1.82-.192-.88-.385-1.75-.56-2.527-.044-.212-.092-.42-.14-.629l-.109-.487c-.177-.769-.354-1.538-.53-2.249a205.273 205.273 0 0 0-2.197-8.381c19.846-11.437 32.939-30.895 32.939-52.937 0-1.142-.051-2.286-.124-3.431a21.55 21.55 0 0 0-.669-6.248l-.228-.88a64.7 64.7 0 0 0-2.191-8.374 21.705 21.705 0 0 0-.617-1.796c-7.182-19.751-23.407-36.123-39.41-36.783-6.772-.271-11.543 2.211-15.754 4.406-4.226 2.204-7.88 4.109-14.269 4.109l-.149-.001c-6.545-.029-10.239-2.021-14.517-4.327-4.063-2.19-8.65-4.663-15.081-4.663-.219 0-.441.003-.666.009-22.009.572-44.436 29.831-44.436 57.972zm129.057-2.372c-1.14-2.35-3.741-3.75-6.329-3.4a6.188 6.188 0 0 0-5.383 6.629l-3.485-1.463c-2.85-1.196-4.994-3.773-5.342-6.845-.39-3.432 1.183-6.54 4.135-8.24l7.603-4.38a8.336 8.336 0 0 1 4.17-1.124c1.435 0 2.877.374 4.2 1.129 2.019 1.15 3.398 3.166 3.98 5.415l1.813 7.003c.245 1.388.426 2.783.542 4.185-.199 2.081-1.17 4.016-2.85 5.47a8.407 8.407 0 0 1-3.467 1.805 6.182 6.182 0 0 0 .413-6.184zm-115.148-4.315 2.131-8.229v-.001c0-.776.234-1.541.685-2.175 1.954-2.754 4.7-4.104 7.428-4.104 1.44 0 2.873.377 4.17 1.124l7.349 4.233c2.679 1.543 4.484 4.367 4.447 7.459-.042 3.453-1.991 6.341-5.132 7.659l-2.907 1.22a6.17 6.17 0 0 0-1.044-3.582c-1.257-1.898-3.542-2.971-5.804-2.705a6.19 6.19 0 0 0-5.246 7.969 6.17 6.17 0 0 0 .908 1.813c-1.715-.215-3.354-.964-4.719-2.253-2.262-2.136-3.045-5.416-2.266-8.428zm63.724 29.012c-1.174 1.543-2.745 1.773-3.576 1.773-.832 0-2.403-.23-3.577-1.772-1.525-2.004-.823-3.968-.451-4.72s1.511-2.5 4.028-2.5 3.656 1.748 4.028 2.5 1.074 2.716-.452 4.719zm2.924 28.069v-14.539a17.409 17.409 0 0 0 7.42-5.653c4.426-5.813 4.825-13.662.854-19.978-2.854-4.539-7.744-7.541-13.082-8.038-7.95-.74-15.226 3.787-18.069 11.255-1.907 5.009-1.37 10.718 1.441 15.28 2.049 3.325 5.01 5.769 8.437 7.134v13.213a84.905 84.905 0 0 1-13.697-2.151l-.14-.033a17.184 17.184 0 0 1-.895-.219l-.248-.064c-.171-.042-.346-.082-.517-.135l-.268-.078a74.017 74.017 0 0 1-4.732-1.425l-.128-.041c-.459-.145-.909-.308-1.369-.473a52.12 52.12 0 0 1-1.26-.465l-.167-.062c-.314-.115-.633-.23-.939-.359l-.182-.074a43.815 43.815 0 0 1-1.239-.496c-11.831-6.143-20.949-15.553-25.521-26.698 1.839.51 3.737.772 5.648.772 2.795 0 5.616-.554 8.312-1.685l9.37-3.934c7.103-2.981 12.337-9.404 13.343-17.041 1.148-8.726-2.992-17.03-10.516-21.363l-7.603-4.38a21.355 21.355 0 0 0-8.308-2.735c5.737-6.534 12.434-10.759 18.279-10.912.113-.003.225-.004.335-.004 2.994 0 5.152 1.085 8.901 3.106 4.826 2.602 10.832 5.839 20.626 5.884l.206.001c9.577-.001 15.51-3.094 20.282-5.582 3.881-2.024 6.048-3.072 9.208-2.944 5.527.229 11.842 4.274 17.309 10.503a21.404 21.404 0 0 0-7.882 2.684l-7.198 4.146c-6.675 3.846-11.066 10.873-11.109 18.575-.049 8.8 5.096 16.521 13.101 19.882l9.802 4.113a21.438 21.438 0 0 0 8.312 1.686c1.734 0 3.456-.229 5.136-.649-7.563 18.275-27.366 31.867-51.253 33.976z"/>
</svg>